<?xml version="1.0" encoding="UTF-8"?>
<svg version="1.1" xmlns="http://www.w3.org/2000/svg" width="100" height="100">
<path d="M0 0 C15.01416143 -0.85958939 15.01416143 -0.85958939 18.75 1.9375 C21.78009589 6.06179719 24 10.78114101 24 16 C27.96 16 31.92 16 36 16 C36 18.64 36 21.28 36 24 C33.03 24 30.06 24 27 24 C28.07160001 27.93631102 29.15630906 31.86874748 30.25317383 35.7980957 C30.62429023 37.13466551 30.99184042 38.47223095 31.35571289 39.81079102 C31.88003871 41.73713402 32.41836858 43.65964797 32.95703125 45.58203125 C33.27647705 46.73936768 33.59592285 47.8967041 33.92504883 49.08911133 C34.99997101 51.99992149 35.6298415 53.10801171 38 55 C41.01296236 55.26172754 43.81480568 55.34860113 46.82421875 55.29296875 C48.11632011 55.28660149 48.11632011 55.28660149 49.43452454 55.28010559 C52.18583431 55.26331248 54.93641162 55.22565956 57.6875 55.1875 C59.5527238 55.17245396 61.41795907 55.15876541 63.28320312 55.14648438 C67.85575098 55.11340693 72.4277513 55.0616206 77 55 C77.20496094 54.30132812 77.40992187 53.60265625 77.62109375 52.8828125 C77.89050781 51.97273438 78.15992187 51.06265625 78.4375 50.125 C78.70433594 49.22007813 78.97117187 48.31515625 79.24609375 47.3828125 C80 45 80 45 81 43 C85.15654359 43.46183818 87.21466571 43.88009102 90 47 C85.67538317 60.24174711 85.67538317 60.24174711 81.875 62.75 C79 64 79 64 76 65 C76.99 65.680625 76.99 65.680625 78 66.375 C80.646085 69.84798656 80.64229612 72.30047049 80.43359375 76.58203125 C80 79 80 79 78.125 82.125 C73.70513784 84.7769173 70.02622846 84.98876625 65 84 C61.875 82.125 61.875 82.125 60 79 C59.38305884 75.5595804 59.19546579 72.41233474 60 69 C61.32 67.68 62.64 66.36 64 65 C58.72 65 53.44 65 48 65 C49.32 66.32 50.64 67.64 52 69 C53.14420344 73.8530008 52.67859678 77.86900536 50.125 82.125 C45.70513784 84.7769173 42.02622846 84.98876625 37 84 C33.875 82.125 33.875 82.125 32 79 C31.38130877 75.54982096 31.3432998 72.44622316 32 69 C34 66.375 34 66.375 36 65 C35.0925 64.608125 34.185 64.21625 33.25 63.8125 C28.20418853 60.99848976 26.08682008 57.78522676 24.40014648 52.34912109 C23.87889851 50.49376983 23.36986957 48.63495581 22.87109375 46.7734375 C22.59531998 45.78880524 22.3195462 44.80417297 22.03541565 43.78970337 C21.15803581 40.6545058 20.29621403 37.51535738 19.4375 34.375 C18.5745 31.22772961 17.70793395 28.08169774 16.82887268 24.93887329 C16.28278119 22.98610367 15.74593411 21.03072009 15.21934509 19.07260132 C14.97221268 18.18803253 14.72508026 17.30346375 14.47045898 16.39208984 C14.25824203 15.61441254 14.04602509 14.83673523 13.82737732 14.03549194 C12.89233463 11.73512448 11.92742045 10.55053855 10 9 C7.49796352 8.42428504 7.49796352 8.42428504 4.8125 8.3125 C3.91144531 8.24675781 3.01039062 8.18101563 2.08203125 8.11328125 C1.39496094 8.07589844 0.70789063 8.03851563 0 8 C0 5.36 0 2.72 0 0 Z M41 73 C41 73.66 41 74.32 41 75 C41.66 75 42.32 75 43 75 C43 74.34 43 73.68 43 73 C42.34 73 41.68 73 41 73 Z M69 73 C69 73.66 69 74.32 69 75 C69.66 75 70.32 75 71 75 C71 74.34 71 73.68 71 73 C70.34 73 69.68 73 69 73 Z " fill="#583588" transform="translate(4,16)"/>
<path d="M0 0 C0.90105469 0.32548828 1.80210938 0.65097656 2.73046875 0.98632812 C9.11529876 3.30764938 9.11529876 3.30764938 11.625 4.5625 C11.77167378 9.02048044 11.85953375 13.47783054 11.9375 17.9375 C11.97939453 19.18917969 12.02128906 20.44085937 12.06445312 21.73046875 C12.19119102 31.41324424 10.39520923 37.68461981 4.484375 45.33203125 C-1.10636207 50.74676363 -6.58937844 55.44246091 -14.3125 57.25 C-23.46629846 55.19506565 -31.56473662 48.23349212 -36.70532227 40.58251953 C-41.03561405 33.14406605 -40.96989477 26.3745867 -40.6875 17.9375 C-40.65366211 16.00197266 -40.65366211 16.00197266 -40.61914062 14.02734375 C-40.56069273 10.8711576 -40.47880275 7.71746495 -40.375 4.5625 C-37.83384998 3.60277826 -35.29210543 2.64468506 -32.75 1.6875 C-32.03714844 1.41808594 -31.32429688 1.14867187 -30.58984375 0.87109375 C-29.17481204 0.33883411 -27.75781201 -0.18822283 -26.33886719 -0.70996094 C-24.66811653 -1.32891133 -23.00848721 -1.97774924 -21.3515625 -2.6328125 C-13.44358237 -4.7706654 -7.42699534 -2.7864865 0 0 Z M-24.0625 8 C-24.75150391 8.23009766 -25.44050781 8.46019531 -26.15039062 8.69726562 C-29.52734838 9.65782155 -29.52734838 9.65782155 -32.375 11.5625 C-33.00377365 21.52051989 -32.87941343 30.51756761 -26.375 38.5625 C-20.6562926 44.32447666 -20.6562926 44.32447666 -13.375 47.5625 C-6.88604935 44.36246954 0.05702439 37.41043497 2.625 30.5625 C3.50067831 26.21560766 3.73269783 22.11688772 3.6875 17.6875 C3.67847656 16.53507812 3.66945312 15.38265625 3.66015625 14.1953125 C3.64855469 13.32648437 3.63695312 12.45765625 3.625 11.5625 C-9.89145931 5.84658593 -9.89145931 5.84658593 -24.0625 8 Z " fill="#DD0029" transform="translate(88.375,3.4375)"/>
<path d="M0 0 C3.23475448 1.61737724 4.70572021 2.47629223 7 5 C5.34038315 9.16928136 2.33861473 12.10111962 -0.75 15.25 C-1.51957031 16.08144531 -1.51957031 16.08144531 -2.3046875 16.9296875 C-4.89660813 19.57370704 -6.40874264 20.86528313 -10.0859375 21.703125 C-14.15011482 20.7224924 -15.39506957 18.80657391 -17.875 15.5 C-19.04675781 13.96859375 -19.04675781 13.96859375 -20.2421875 12.40625 C-20.82226562 11.6121875 -21.40234375 10.818125 -22 10 C-19.75 7.5 -19.75 7.5 -17 5 C-15.68 5 -14.36 5 -13 5 C-11.68 6.32 -10.36 7.64 -9 9 C-6.03 6.03 -3.06 3.06 0 0 Z " fill="#DE0029" transform="translate(82,19)"/>
</svg>
