<?xml version="1.0" encoding="UTF-8"?>
<svg version="1.1" xmlns="http://www.w3.org/2000/svg" width="100" height="100">
<path d="M0 0 C8.43362193 8.01194084 8.43362193 8.01194084 8.59765625 13.8515625 C8.59100795 15.23440867 8.57908295 16.61723728 8.5625 18 C8.55798828 18.70640625 8.55347656 19.4128125 8.54882812 20.140625 C8.53703875 21.88545275 8.51910324 23.630237 8.5 25.375 C11.47 25.375 14.44 25.375 17.5 25.375 C18.16 33.955 18.82 42.535 19.5 51.375 C21.87058594 51.36339844 24.24117188 51.35179687 26.68359375 51.33984375 C28.97045762 51.33205304 31.25732004 51.32597636 33.54418945 51.32006836 C35.13794614 51.31502843 36.73169819 51.3081965 38.32543945 51.29956055 C40.61150253 51.28748001 42.89750467 51.28176845 45.18359375 51.27734375 C45.90026718 51.27218246 46.61694061 51.26702118 47.35533142 51.26170349 C49.07063672 51.26150737 50.78581266 51.31307993 52.5 51.375 C55.24259405 54.11759405 54.78262741 61.08344852 55.28442383 64.98095703 C55.55612894 67.0758774 55.84104422 69.16869663 56.12695312 71.26171875 C58.37280576 88.1986139 58.37280576 88.1986139 57.5 96.375 C54.8287442 99.0462558 52.81339014 98.62069255 49.18109131 98.64605713 C48.29375305 98.64200867 47.40641479 98.63796021 46.4921875 98.63378906 C45.09205414 98.63904602 45.09205414 98.63904602 43.66363525 98.64440918 C40.56734863 98.65323702 37.47128909 98.64737361 34.375 98.640625 C32.23030554 98.64197135 30.08561138 98.64391162 27.94091797 98.64642334 C23.44170227 98.64937603 18.94256587 98.64507228 14.44335938 98.63574219 C8.66590055 98.62434761 2.88862753 98.6309063 -2.88882446 98.64288712 C-7.31878061 98.65010179 -11.74869245 98.64781959 -16.1786499 98.64263153 C-18.30938743 98.64129395 -20.44012893 98.64294653 -22.57086182 98.64759064 C-25.54474601 98.6526494 -28.51832605 98.64495476 -31.4921875 98.63378906 C-32.37952576 98.63783752 -33.26686401 98.64188599 -34.18109131 98.64605713 C-40.2714724 98.6035276 -40.2714724 98.6035276 -42.5 96.375 C-42.70859799 93.9785397 -42.77853181 91.72525062 -42.74609375 89.328125 C-42.74056992 88.58653137 -42.73504608 87.84493774 -42.72935486 87.08087158 C-42.57112406 77.17194283 -41.69278141 67.30131503 -40.84594727 57.43212891 C-40.55945484 54.08947049 -40.28381936 50.74604289 -40.00976562 47.40234375 C-39.83135111 45.26296888 -39.65233703 43.1236439 -39.47265625 40.984375 C-39.39032242 39.99169617 -39.30798859 38.99901733 -39.22315979 37.97625732 C-39.14315231 37.05048889 -39.06314484 36.12472046 -38.98071289 35.17089844 C-38.91187393 34.36279724 -38.84303497 33.55469604 -38.77210999 32.72210693 C-38.48384471 30.23565124 -38.02265781 27.82200042 -37.5 25.375 C-34.86 25.375 -32.22 25.375 -29.5 25.375 C-29.53480469 24.58996094 -29.56960937 23.80492188 -29.60546875 22.99609375 C-29.81237857 14.96602213 -29.13127325 10.36727666 -24.6875 3.625 C-18.26168324 -2.98441152 -8.24548624 -3.82826147 0 0 Z M-18.5 5.375 C-21.31896612 8.05556727 -23.25505997 10.64017991 -24.5 14.375 C-24.5 18.005 -24.5 21.635 -24.5 25.375 C-14.93 25.375 -5.36 25.375 4.5 25.375 C4.59303939 14.61323226 4.59303939 14.61323226 -0.6875 6 C-7.1503597 2.26590329 -11.80400069 1.33213249 -18.5 5.375 Z " fill="#6770E6" transform="translate(42.5,1.625)"/>
<path d="M0 0 C0.93408188 0.00142502 1.86816376 0.00285004 2.83055115 0.00431824 C3.88827225 0.00124161 4.94599335 -0.00183502 6.0357666 -0.00500488 C7.75454262 0.00577339 7.75454262 0.00577339 9.50804138 0.01676941 C10.67923019 0.01722763 11.85041901 0.01768585 13.05709839 0.01815796 C15.53611767 0.021183 18.01513501 0.02907677 20.49412537 0.04142761 C24.3041705 0.05967845 28.11397275 0.0619374 31.92405701 0.06169128 C34.32705392 0.06660645 36.73004917 0.07243477 39.13304138 0.07926941 C40.28091629 0.08038223 41.4287912 0.08149506 42.6114502 0.0826416 C44.1933036 0.09221138 44.1933036 0.09221138 45.80711365 0.10197449 C47.20704308 0.10769218 47.20704308 0.10769218 48.63525391 0.11352539 C50.75413513 0.24723816 50.75413513 0.24723816 51.75413513 1.24723816 C52.48434122 5.42895672 52.99655124 9.64336099 53.53855896 13.85319519 C53.81026407 15.94811556 54.09517935 18.04093479 54.38108826 20.13395691 C56.62694089 37.07085206 56.62694089 37.07085206 55.75413513 45.24723816 C53.10275552 47.89861777 51.86047353 47.50541174 48.15867615 47.52189636 C46.98728592 47.53142838 45.81589569 47.54096039 44.60900879 47.55078125 C43.33818954 47.54986984 42.0673703 47.54895844 40.75804138 47.54801941 C39.45841965 47.55230453 38.15879791 47.55658966 36.8197937 47.56100464 C34.06666491 47.56847168 31.31366433 47.56817229 28.56053162 47.56291199 C25.03176352 47.55711846 21.50352048 47.5740424 17.97483921 47.59725666 C14.61088431 47.6155297 11.2470457 47.61180881 7.88304138 47.61051941 C6.61424637 47.61972916 5.34545135 47.6289389 4.03820801 47.63842773 C2.27639442 47.62908455 2.27639442 47.62908455 0.47898865 47.61955261 C-0.55644577 47.62018204 -1.59188019 47.62081146 -2.65869141 47.62145996 C-5.24586487 47.24723816 -5.24586487 47.24723816 -7.0821991 45.84266663 C-10.44003848 41.23894564 -8.02989265 32.86494758 -7.22999573 27.59611511 C-7.09085754 26.71786072 -6.95171936 25.83960632 -6.80836487 24.93473816 C-5.76052123 18.06607782 -4.88250643 11.27791862 -4.55445862 4.32926941 C-4.09957623 1.26025278 -3.06308606 0.33720273 0 0 Z " fill="#D376E2" transform="translate(44.24586486816406,52.75276184082031)"/>
<path d="M0 0 C17.49 0 34.98 0 53 0 C53.495 1.485 53.495 1.485 54 3 C48.06 3.495 48.06 3.495 42 4 C43.32 4.66 44.64 5.32 46 6 C45.69533633 13.43379361 44.74878415 19.84993755 39.61328125 25.53515625 C34.780646 29.88579638 29.5630869 31.55652915 23.0859375 31.3828125 C18.08230347 30.46454258 14.34192267 27.23311813 10.6875 23.875 C7.76854122 18.90195911 5.55785106 12.95306815 6.42578125 7.15625 C6.61527344 6.4446875 6.80476563 5.733125 7 5 C7.99 4.67 8.98 4.34 10 4 C6.37 3.67 2.74 3.34 -1 3 C-0.67 2.01 -0.34 1.02 0 0 Z " fill="#D278E2" transform="translate(42,53)"/>
<path d="M0 0 C5.63173949 5.35015251 8.57509597 8.98529621 8.81640625 16.9140625 C8.85830078 18.21601563 8.90019531 19.51796875 8.94335938 20.859375 C8.98317299 22.23958045 9.02288522 23.61978883 9.0625 25 C9.10569407 26.38803415 9.14930865 27.77605528 9.19335938 29.1640625 C9.29972 32.56760256 9.40174714 35.97121778 9.5 39.375 C7.025 39.87 7.025 39.87 4.5 40.375 C3.03614594 34.84613582 3.50926808 29.25015952 3.71484375 23.58789062 C3.81633996 17.7979932 2.97539504 13.6388377 0.5 8.375 C-3.25217926 5.1231113 -6.51079725 3.47682046 -11.5 3.375 C-16.67661353 4.98153523 -19.54171403 6.82379081 -22.5 11.375 C-23.5592918 14.55287541 -23.61458939 16.80088943 -23.59765625 20.13671875 C-23.59443359 21.25498047 -23.59121094 22.37324219 -23.58789062 23.52539062 C-23.57951172 24.69263672 -23.57113281 25.85988281 -23.5625 27.0625 C-23.55798828 28.24134766 -23.55347656 29.42019531 -23.54882812 30.63476562 C-23.53703273 33.54822789 -23.5205727 36.46158863 -23.5 39.375 C-25.975 39.87 -25.975 39.87 -28.5 40.375 C-29.16 39.055 -29.82 37.735 -30.5 36.375 C-30.005 35.88 -30.005 35.88 -29.5 35.375 C-29.44934275 33.82113583 -29.46444403 32.26502218 -29.5078125 30.7109375 C-29.52457031 29.75316406 -29.54132812 28.79539062 -29.55859375 27.80859375 C-29.60236002 25.79277101 -29.65425041 23.77710587 -29.71484375 21.76171875 C-29.82343961 14.36732767 -28.79560762 9.85799087 -24.6875 3.625 C-18.26168324 -2.98441152 -8.24548624 -3.82826147 0 0 Z " fill="#68E9FB" transform="translate(42.5,1.625)"/>
<path d="M0 0 C1.65 0.33 3.3 0.66 5 1 C4.96519531 1.58007812 4.93039063 2.16015625 4.89453125 2.7578125 C4.71379173 7.97343867 4.98883858 11.53517444 8 16 C11.41599369 19.08272601 13.62953286 20.89457945 18.25 21.25 C23.48918107 20.90072126 26.51615492 19.40363724 30.3125 15.8125 C32.49244825 12.17925291 32.68221227 9.14796619 33 5 C33.31323028 3.32943851 33.63678515 1.66041075 34 0 C36.475 0.495 36.475 0.495 39 1 C38.69533633 8.43379361 37.74878415 14.84993755 32.61328125 20.53515625 C27.780646 24.88579638 22.5630869 26.55652915 16.0859375 26.3828125 C11.08230347 25.46454258 7.34192267 22.23311813 3.6875 18.875 C0.76854122 13.90195911 -1.44214894 7.95306815 -0.57421875 2.15625 C-0.38472656 1.4446875 -0.19523437 0.733125 0 0 Z " fill="#70E2FA" transform="translate(49,58)"/>
<path d="M0 0 C0.37914551 0.48699371 0.75829102 0.97398743 1.14892578 1.47573853 C3.69350379 3.5710636 5.34463252 3.38048553 8.6171875 3.38818359 C10.34412842 3.40236832 10.34412842 3.40236832 12.10595703 3.4168396 C13.34974121 3.41076691 14.59352539 3.40469421 15.875 3.3984375 C17.15101074 3.40130768 18.42702148 3.40417786 19.74169922 3.40713501 C22.44204116 3.40917835 25.14157081 3.40513392 27.84179688 3.39111328 C31.3021923 3.37402089 34.76188971 3.38386307 38.22225952 3.40183067 C41.52319806 3.41528016 44.82405236 3.40586244 48.125 3.3984375 C49.36878418 3.40451019 50.61256836 3.41058289 51.89404297 3.4168396 C53.04533691 3.40738312 54.19663086 3.39792664 55.3828125 3.38818359 C56.39746582 3.38579681 57.41211914 3.38341003 58.45751953 3.38095093 C61.34892429 2.94771915 62.23291747 2.2697304 64 0 C64.125 2.375 64.125 2.375 64 5 C61.34862039 7.65137961 60.1063384 7.25817358 56.40454102 7.2746582 C55.23315079 7.28419022 54.06176056 7.29372223 52.85487366 7.30354309 C51.58405441 7.30263168 50.31323517 7.30172028 49.00390625 7.30078125 C47.70428452 7.30506638 46.40466278 7.3093515 45.06565857 7.31376648 C42.31252977 7.32123352 39.5595292 7.32093413 36.80639648 7.31567383 C33.27762838 7.3098803 29.74938535 7.32680424 26.22070408 7.3500185 C22.85674918 7.36829154 19.49291057 7.36457065 16.12890625 7.36328125 C14.22571373 7.37709587 14.22571373 7.37709587 12.28407288 7.39118958 C10.52225929 7.38184639 10.52225929 7.38184639 8.72485352 7.37231445 C7.6894191 7.37294388 6.65398468 7.3735733 5.58717346 7.3742218 C3 7 3 7 1.14219666 5.72673035 C0 4 0 4 0 0 Z " fill="#B866C4" transform="translate(36,93)"/>
<path d="M0 0 C-1 2 -1 2 -3.8125 3.3125 C-8.22805325 5.65014584 -10.42505776 8.27517329 -12 13 C-12.08266486 14.91906917 -12.10740663 16.84089474 -12.09765625 18.76171875 C-12.09443359 19.87998047 -12.09121094 20.99824219 -12.08789062 22.15039062 C-12.07951172 23.31763672 -12.07113281 24.48488281 -12.0625 25.6875 C-12.05798828 26.86634766 -12.05347656 28.04519531 -12.04882812 29.25976562 C-12.03703273 32.17322789 -12.0205727 35.08658863 -12 38 C-14.475 38.495 -14.475 38.495 -17 39 C-17.66 37.68 -18.32 36.36 -19 35 C-18.505 34.505 -18.505 34.505 -18 34 C-18.02326053 32.00593794 -18.0528101 30.01171301 -18.1171875 28.01855469 C-18.56284871 12.45136109 -18.56284871 12.45136109 -14 6 C-10.48649777 2.50809717 -5.15207309 -2.57603654 0 0 Z " fill="#6AE6FB" transform="translate(31,3)"/>
<path d="M0 0 C17.49 0 34.98 0 53 0 C53.495 1.485 53.495 1.485 54 3 C35.85 3 17.7 3 -1 3 C-0.67 2.01 -0.34 1.02 0 0 Z " fill="#E780F7" transform="translate(42,53)"/>
<path d="M0 0 C1.485 0.99 1.485 0.99 3 2 C5.58588478 2.2044927 8.07328979 2.30092562 10.66015625 2.30859375 C12.19075923 2.33374084 13.7213581 2.35913904 15.25195312 2.38476562 C17.66380871 2.41358081 20.0755933 2.4376015 22.48754883 2.45629883 C24.81628151 2.47788093 27.14420222 2.51729788 29.47265625 2.55859375 C30.19663101 2.55870956 30.92060577 2.55882538 31.66651917 2.5589447 C33.69946289 2.59936523 33.69946289 2.59936523 37 3 C37.66 3.99 38.32 4.98 39 6 C33.76726669 6.04935824 28.53466824 6.08569949 23.30175781 6.10986328 C21.52080933 6.11993431 19.73987743 6.13359185 17.95898438 6.15087891 C15.40230217 6.17507913 12.84583815 6.18647184 10.2890625 6.1953125 C9.49005524 6.20563507 8.69104797 6.21595764 7.86782837 6.22659302 C5.9104278 6.22699226 3.95356923 6.12241069 2 6 C1.34 5.34 0.68 4.68 0 4 C0 2.68 0 1.36 0 0 Z " fill="#5962CA" transform="translate(0,94)"/>
<path d="M0 0 C3.29063488 3.12610313 6.44869937 6.27239873 8.5 10.375 C8.539992 12.37460012 8.54346799 14.37547242 8.5 16.375 C8.2525 15.83875 8.005 15.3025 7.75 14.75 C4.55640203 8.68216386 1.22902445 3.61800815 -5.5 1.375 C-12.63109201 0.89959387 -17.49155855 1.98192158 -23.25 6.5625 C-26.04517986 10.05647482 -27.13258259 13.12880911 -28.5 17.375 C-29.94189329 12.89237936 -28.6201342 10.54216032 -26.5 6.375 C-20.58745635 -2.59575588 -9.58452892 -4.44995986 0 0 Z " fill="#92EFFC" transform="translate(42.5,1.625)"/>
<path d="M0 0 C9.57 0 19.14 0 29 0 C29 0.99 29 1.98 29 3 C19.43 3 9.86 3 0 3 C0 2.01 0 1.02 0 0 Z " fill="#8B91E6" transform="translate(18,27)"/>
<path d="M0 0 C2.97 0 5.94 0 9 0 C9 3.3 9 6.6 9 10 C8.67 10 8.34 10 8 10 C8 7.69 8 5.38 8 3 C5.36 3 2.72 3 0 3 C0 2.01 0 1.02 0 0 Z " fill="#8298E8" transform="translate(5,27)"/>
<path d="M0 0 C2.97 0 5.94 0 9 0 C9 0.99 9 1.98 9 3 C6.03 3 3.06 3 0 3 C0 2.01 0 1.02 0 0 Z " fill="#8A90E6" transform="translate(51,27)"/>
<path d="M0 0 C0.33 0 0.66 0 1 0 C1.125 2.375 1.125 2.375 1 5 C0.34 5.66 -0.32 6.32 -1 7 C-1.99 7 -2.98 7 -4 7 C-2.79618552 4.50638429 -1.54571278 2.31856917 0 0 Z " fill="#BB69CD" transform="translate(99,93)"/>
</svg>
